<mxfile host="app.diagrams.net" modified="2023-06-28T09:47:20.363Z" agent="Mozilla/5.0 (X11; Linux x86_64; rv:109.0) Gecko/20100101 Firefox/114.0" etag="-bHmKKnqyKFmq_LJgKow" version="21.3.6" type="device">
  <diagram name="Page-1" id="d66fe2ae-3e9f-cf2f-6d29-e24063ad5d60">
    <mxGraphModel dx="1434" dy="763" grid="1" gridSize="10" guides="1" tooltips="1" connect="1" arrows="1" fold="1" page="1" pageScale="1" pageWidth="1100" pageHeight="850" background="none" math="0" shadow="0">
      <root>
        <mxCell id="0" />
        <mxCell id="1" parent="0" />
        <mxCell id="Acgf1Z32GytovVYrBF04-20" value="" style="rounded=0;whiteSpace=wrap;html=1;fillColor=none;strokeWidth=3;strokeColor=#82b366;" vertex="1" parent="1">
          <mxGeometry x="80" y="60" width="720" height="590" as="geometry" />
        </mxCell>
        <mxCell id="Acgf1Z32GytovVYrBF04-26" style="edgeStyle=orthogonalEdgeStyle;rounded=0;orthogonalLoop=1;jettySize=auto;html=1;" edge="1" parent="1" source="Acgf1Z32GytovVYrBF04-1" target="Acgf1Z32GytovVYrBF04-23">
          <mxGeometry relative="1" as="geometry" />
        </mxCell>
        <mxCell id="Acgf1Z32GytovVYrBF04-1" value="&lt;div&gt;&lt;font style=&quot;font-size: 17px;&quot;&gt;NODE-A&lt;/font&gt;&lt;/div&gt;&lt;div&gt;&lt;i&gt;&lt;font style=&quot;font-size: 17px;&quot;&gt;CONTROL PLANE&lt;/font&gt;&lt;/i&gt;&lt;/div&gt;" style="fontColor=#0066CC;verticalAlign=bottom;verticalLabelPosition=top;labelPosition=center;align=center;html=1;outlineConnect=0;fillColor=#CCCCCC;strokeColor=#6881B3;gradientColor=none;gradientDirection=north;strokeWidth=2;shape=mxgraph.networks.rack;" vertex="1" parent="1">
          <mxGeometry x="415" y="160" width="50" height="100" as="geometry" />
        </mxCell>
        <mxCell id="Acgf1Z32GytovVYrBF04-24" style="edgeStyle=orthogonalEdgeStyle;rounded=0;orthogonalLoop=1;jettySize=auto;html=1;" edge="1" parent="1" source="Acgf1Z32GytovVYrBF04-2" target="Acgf1Z32GytovVYrBF04-23">
          <mxGeometry relative="1" as="geometry">
            <Array as="points">
              <mxPoint x="235" y="380" />
              <mxPoint x="235" y="380" />
            </Array>
          </mxGeometry>
        </mxCell>
        <mxCell id="Acgf1Z32GytovVYrBF04-2" value="&lt;div style=&quot;font-size: 17px;&quot;&gt;&lt;font style=&quot;font-size: 17px;&quot;&gt;NODE-B&lt;/font&gt;&lt;/div&gt;&lt;div style=&quot;font-size: 17px;&quot;&gt;&lt;font style=&quot;font-size: 17px;&quot;&gt;&lt;i&gt;WORKER&lt;/i&gt;&lt;/font&gt;&lt;/div&gt;" style="fontColor=#0066CC;verticalAlign=top;verticalLabelPosition=bottom;labelPosition=center;align=center;html=1;outlineConnect=0;fillColor=#CCCCCC;strokeColor=#6881B3;gradientColor=none;gradientDirection=north;strokeWidth=2;shape=mxgraph.networks.rack;" vertex="1" parent="1">
          <mxGeometry x="210" y="430" width="50" height="100" as="geometry" />
        </mxCell>
        <mxCell id="Acgf1Z32GytovVYrBF04-25" style="edgeStyle=orthogonalEdgeStyle;rounded=0;orthogonalLoop=1;jettySize=auto;html=1;" edge="1" parent="1" source="Acgf1Z32GytovVYrBF04-3" target="Acgf1Z32GytovVYrBF04-23">
          <mxGeometry relative="1" as="geometry">
            <Array as="points">
              <mxPoint x="645" y="380" />
              <mxPoint x="645" y="380" />
            </Array>
          </mxGeometry>
        </mxCell>
        <mxCell id="Acgf1Z32GytovVYrBF04-3" value="&lt;div style=&quot;font-size: 17px;&quot;&gt;&lt;font style=&quot;font-size: 17px;&quot;&gt;NODE-C&lt;i&gt;&lt;br&gt;&lt;/i&gt;&lt;/font&gt;&lt;/div&gt;&lt;div style=&quot;font-size: 17px;&quot;&gt;&lt;font style=&quot;font-size: 17px;&quot;&gt;&lt;i&gt;WORKER&lt;/i&gt;&lt;/font&gt;&lt;/div&gt;" style="fontColor=#0066CC;verticalAlign=top;verticalLabelPosition=bottom;labelPosition=center;align=center;html=1;outlineConnect=0;fillColor=#CCCCCC;strokeColor=#6881B3;gradientColor=none;gradientDirection=north;strokeWidth=2;shape=mxgraph.networks.rack;" vertex="1" parent="1">
          <mxGeometry x="620" y="430" width="50" height="100" as="geometry" />
        </mxCell>
        <mxCell id="Acgf1Z32GytovVYrBF04-14" value="" style="rounded=0;whiteSpace=wrap;html=1;fillColor=none;strokeWidth=3;strokeColor=#b85450;" vertex="1" parent="1">
          <mxGeometry x="355" y="100" width="170" height="180" as="geometry" />
        </mxCell>
        <mxCell id="Acgf1Z32GytovVYrBF04-15" value="&lt;font style=&quot;font-size: 17px;&quot; color=&quot;#a51d2d&quot;&gt;PROXMOX VM&lt;/font&gt;" style="text;html=1;align=center;verticalAlign=middle;resizable=0;points=[];autosize=1;strokeColor=none;fillColor=none;" vertex="1" parent="1">
          <mxGeometry x="370" y="70" width="140" height="30" as="geometry" />
        </mxCell>
        <mxCell id="Acgf1Z32GytovVYrBF04-16" value="" style="rounded=0;whiteSpace=wrap;html=1;fillColor=none;strokeWidth=3;strokeColor=#b85450;" vertex="1" parent="1">
          <mxGeometry x="150" y="410" width="170" height="180" as="geometry" />
        </mxCell>
        <mxCell id="Acgf1Z32GytovVYrBF04-17" value="&lt;font style=&quot;font-size: 17px;&quot; color=&quot;#a51d2d&quot;&gt;PROXMOX VM&lt;/font&gt;" style="text;html=1;align=center;verticalAlign=middle;resizable=0;points=[];autosize=1;strokeColor=none;fillColor=none;" vertex="1" parent="1">
          <mxGeometry x="165" y="590" width="140" height="30" as="geometry" />
        </mxCell>
        <mxCell id="Acgf1Z32GytovVYrBF04-18" value="" style="rounded=0;whiteSpace=wrap;html=1;fillColor=none;strokeWidth=3;strokeColor=#b85450;" vertex="1" parent="1">
          <mxGeometry x="560" y="410" width="170" height="180" as="geometry" />
        </mxCell>
        <mxCell id="Acgf1Z32GytovVYrBF04-19" value="&lt;font style=&quot;font-size: 17px;&quot; color=&quot;#a51d2d&quot;&gt;PROXMOX VM&lt;/font&gt;" style="text;html=1;align=center;verticalAlign=middle;resizable=0;points=[];autosize=1;strokeColor=none;fillColor=none;" vertex="1" parent="1">
          <mxGeometry x="575" y="590" width="140" height="30" as="geometry" />
        </mxCell>
        <mxCell id="Acgf1Z32GytovVYrBF04-21" value="&lt;font style=&quot;font-size: 17px;&quot; color=&quot;#5d8049&quot;&gt;&lt;b&gt;CLUSTER KUBERNETES&lt;/b&gt;&lt;/font&gt;" style="text;html=1;align=center;verticalAlign=middle;resizable=0;points=[];autosize=1;strokeColor=none;fillColor=none;" vertex="1" parent="1">
          <mxGeometry x="330" y="650" width="220" height="30" as="geometry" />
        </mxCell>
        <mxCell id="Acgf1Z32GytovVYrBF04-30" style="edgeStyle=orthogonalEdgeStyle;rounded=0;orthogonalLoop=1;jettySize=auto;html=1;" edge="1" parent="1" source="Acgf1Z32GytovVYrBF04-23" target="Acgf1Z32GytovVYrBF04-28">
          <mxGeometry relative="1" as="geometry" />
        </mxCell>
        <mxCell id="Acgf1Z32GytovVYrBF04-23" value="&lt;font style=&quot;font-size: 17px;&quot;&gt;VIRTUAL BRIDGE&lt;/font&gt;" style="rounded=1;whiteSpace=wrap;html=1;" vertex="1" parent="1">
          <mxGeometry x="200" y="320" width="480" height="40" as="geometry" />
        </mxCell>
        <mxCell id="Acgf1Z32GytovVYrBF04-29" style="edgeStyle=orthogonalEdgeStyle;rounded=0;orthogonalLoop=1;jettySize=auto;html=1;" edge="1" parent="1" source="Acgf1Z32GytovVYrBF04-28" target="Acgf1Z32GytovVYrBF04-23">
          <mxGeometry relative="1" as="geometry" />
        </mxCell>
        <mxCell id="Acgf1Z32GytovVYrBF04-28" value="&lt;font style=&quot;font-size: 18px;&quot;&gt;EXTERNAL NETWORK&lt;/font&gt;" style="fontColor=#0066CC;verticalAlign=top;verticalLabelPosition=bottom;labelPosition=center;align=center;html=1;outlineConnect=0;fillColor=#CCCCCC;strokeColor=#6881B3;gradientColor=none;gradientDirection=north;strokeWidth=2;shape=mxgraph.networks.router;" vertex="1" parent="1">
          <mxGeometry x="940" y="325" width="100" height="30" as="geometry" />
        </mxCell>
      </root>
    </mxGraphModel>
  </diagram>
</mxfile>
